Coordinates
version=1
nRows=10
nColumns=40
inDegrees=yes

Units are S.I. units (second, meters, Newtons, ...)
If the header above contains a line with 'inDegrees', this indicates whether rotational values are in degrees (yes) or radians (no).

endheader
time	pelvis_tilt	pelvis_list	pelvis_rotation	pelvis_tx	pelvis_ty	pelvis_tz	hip_flexion_r	hip_adduction_r	hip_rotation_r	knee_angle_r	knee_angle_r_beta	ankle_angle_r	subtalar_angle_r	mtp_angle_r	hip_flexion_l	hip_adduction_l	hip_rotation_l	knee_angle_l	knee_angle_l_beta	ankle_angle_l	subtalar_angle_l	mtp_angle_l	lumbar_extension	lumbar_bending	lumbar_rotation	arm_flex_r	arm_add_r	arm_rot_r	elbow_flex_r	pro_sup_r	wrist_flex_r	wrist_dev_r	arm_flex_l	arm_add_l	arm_rot_l	elbow_flex_l	pro_sup_l	wrist_flex_l	wrist_dev_l
      2.65500000	     -1.72611495	     -2.03137301	     -3.22407078	      0.16565100	      0.42162992	     -1.20900933	     99.08367857	    -43.86956505	     24.79529287	    125.77249516	      2.19514415	     37.03565514	     14.41238430	      0.00000000	    106.39527574	    -48.85936595	     34.79261985	    125.23773798	      2.18581088	     35.32209091	     23.19373992	      0.00000000	    -35.50339594	      2.15353680	      2.78735233	     44.99992348	    -14.99999999	     44.99992348	     75.00017585	     45.00000026	      0.00000000	      0.00000000	     44.99992348	    -14.99999999	     44.99992348	     75.00017585	     45.00000026	      0.00000000	      0.00000000
      2.66000000	     -1.93446794	     -1.97270491	     -3.21525604	      0.16518803	      0.42312886	     -1.20902412	     99.08633634	    -43.83108852	     24.58872281	    125.51798706	      2.19070214	     36.89685073	     14.27038828	      0.00000000	    106.24264019	    -48.86083397	     34.36061776	    125.02790518	      2.18214860	     35.25750708	     23.17419167	      0.00000000	    -35.29197365	      2.10573973	      2.69911162	     44.99992352	    -14.99999999	     44.99992352	     75.00017585	     45.00000026	      0.00000000	      0.00000000	     44.99992352	    -14.99999999	     44.99992352	     75.00017585	     45.00000026	      0.00000000	      0.00000000
      2.66500000	     -2.22425843	     -1.97377946	     -3.22037528	      0.16476418	      0.42449857	     -1.20898099	     99.09670151	    -43.77664932	     24.27040344	    125.28969264	      2.18671766	     36.75750212	     14.15150041	      0.00000000	    106.29498109	    -48.84517459	     34.05019765	    124.79424214	      2.17807041	     35.09970548	     23.04399591	      0.00000000	    -34.98951174	      2.12471176	      2.71044136	     44.99992355	    -14.99999999	     44.99992355	     75.00017585	     45.00000026	      0.00000000	      0.00000000	     44.99992355	    -14.99999999	     44.99992355	     75.00017585	     45.00000026	      0.00000000	      0.00000000
      2.67000000	     -2.51974064	     -1.98013462	     -3.23646071	      0.16431581	      0.42590843	     -1.20895021	     99.10383764	    -43.70693321	     23.93830997	    125.04837613	      2.18250589	     36.60992311	     14.00841309	      0.00000000	    106.35615365	    -48.83336337	     33.75171680	    124.56384969	      2.17404931	     34.91135320	     22.88114765	      0.00000000	    -34.67138876	      2.14445625	      2.72602881	     44.99992358	    -14.99999999	     44.99992358	     75.00017585	     45.00000026	      0.00000000	      0.00000000	     44.99992358	    -14.99999999	     44.99992358	     75.00017585	     45.00000026	      0.00000000	      0.00000000
      2.67500000	     -2.81231631	     -1.98682058	     -3.24155138	      0.16385605	      0.42746476	     -1.20892946	     99.08487692	    -43.65295861	     23.57796542	    124.78484236	      2.17790636	     36.45288343	     13.84233865	      0.00000000	    106.38420934	    -48.81775352	     33.42137112	    124.31494260	      2.16970506	     34.74159360	     22.72770941	      0.00000000	    -34.35970073	      2.16789507	      2.74141442	     44.99992361	    -14.99999999	     44.99992361	     75.00017585	     45.00000026	      0.00000000	      0.00000000	     44.99992361	    -14.99999999	     44.99992361	     75.00017585	     45.00000026	      0.00000000	      0.00000000
      2.68000000	     -3.09355596	     -1.98254946	     -3.25141117	      0.16337340	      0.42913593	     -1.20890319	     99.05141372	    -43.59087241	     23.22483476	    124.51442523	      2.17318669	     36.27515157	     13.65500588	      0.00000000	    106.36040227	    -48.81062498	     33.05454706	    124.05098335	      2.16509810	     34.57482335	     22.57838288	      0.00000000	    -34.05948429	      2.18186227	      2.75586868	     44.99992364	    -14.99999999	     44.99992364	     75.00017585	     45.00000026	      0.00000000	      0.00000000	     44.99992364	    -14.99999999	     44.99992364	     75.00017585	     45.00000026	      0.00000000	      0.00000000
      2.68500000	     -3.35597681	     -1.95948300	     -3.24106016	      0.16282994	      0.43112627	     -1.20888274	     98.93083043	    -43.50692394	     22.84131778	    124.20628839	      2.16780868	     36.15024755	     13.30326841	      0.00000000	    106.23596034	    -48.81789731	     32.53456646	    123.75366818	      2.15990897	     34.48702750	     22.30791147	      0.00000000	    -33.80910924	      2.20803943	      2.75868438	     44.99992367	    -14.99999999	     44.99992367	     75.00017585	     45.00000026	      0.00000000	      0.00000000	     44.99992367	    -14.99999999	     44.99992367	     75.00017585	     45.00000026	      0.00000000	      0.00000000
      2.69000000	     -3.70691691	     -1.97815664	     -3.26683530	      0.16244949	      0.43270794	     -1.20883176	     98.97406644	    -43.47414170	     22.45620082	    123.91931759	      2.16280010	     35.93891526	     13.32275751	      0.00000000	    106.33652753	    -48.80414398	     32.27968866	    123.48668015	      2.15524915	     34.21211261	     22.26144280	      0.00000000	    -33.39347823	      2.20653799	      2.77668544	     44.99992370	    -14.99999999	     44.99992370	     75.00017585	     45.00000026	      0.00000000	      0.00000000	     44.99992370	    -14.99999999	     44.99992370	     75.00017585	     45.00000026	      0.00000000	      0.00000000
      2.69500000	     -4.01548539	     -1.98276920	     -3.28062869	      0.16195949	      0.43462538	     -1.20877582	     98.90072324	    -43.40218164	     22.04003611	    123.60551645	      2.15732324	     35.75096957	     13.12224675	      0.00000000	    106.31246802	    -48.80474726	     31.88238109	    123.18418534	      2.14996962	     34.00306888	     22.07008536	      0.00000000	    -33.05368252	      2.23053480	      2.80265656	     44.99992372	    -14.99999999	     44.99992372	     75.00017585	     45.00000026	      0.00000000	      0.00000000	     44.99992372	    -14.99999999	     44.99992372	     75.00017585	     45.00000026	      0.00000000	      0.00000000
      2.70000000	     -4.35721248	     -2.01458877	     -3.28282544	      0.16148430	      0.43653866	     -1.20877500	     98.82503968	    -43.34864332	     21.57553398	    123.28508421	      2.15173064	     35.57750619	     12.93847842	      0.00000000	    106.35758402	    -48.77700379	     31.52391233	    122.87791103	      2.14462413	     33.76427456	     21.83041046	      0.00000000	    -32.66843665	      2.28986490	      2.81291016	     44.99992375	    -14.99999999	     44.99992375	     75.00017585	     45.00000026	      0.00000000	      0.00000000	     44.99992375	    -14.99999999	     44.99992375	     75.00017585	     45.00000026	      0.00000000	      0.00000000
